<svg xmlns="http://www.w3.org/2000/svg" viewBox="0 0 880.61 267.88"><defs><style>.cls-1{fill:#ffae98;stroke:#fff;stroke-width:9px;}.cls-1,.cls-2{stroke-miterlimit:10;}.cls-2{font-size:83px;}.cls-2,.cls-6{stroke:#231f20;}.cls-2,.cls-7{font-family:Porter-BoldDEMO, Porter;font-weight:700;}.cls-3{letter-spacing:-0.08em;}.cls-4{letter-spacing:-0.04em;}.cls-5{letter-spacing:-0.04em;}.cls-6,.cls-7{fill:#fff;}.cls-6{stroke-linecap:round;stroke-linejoin:round;stroke-width:4px;}.cls-7{font-size:31px;}.cls-8{letter-spacing:-0.04em;}.cls-9{letter-spacing:-0.08em;}.cls-10{letter-spacing:-0.04em;}</style></defs><title>packnow</title><g id="Layer_2" data-name="Layer 2"><g id="Layer_1-2" data-name="Layer 1"><rect class="cls-1" x="4.5" y="4.5" width="871.61" height="258.88"/><text class="cls-2" transform="translate(204.43 140.12)"><tspan class="cls-3">P</tspan><tspan class="cls-4" x="47.31" y="0">a</tspan><tspan x="104.25" y="0">ck N</tspan><tspan class="cls-5" x="308.43" y="0">o</tspan><tspan x="374.33" y="0">w</tspan></text><path class="cls-6" d="M682.19,131s-5.06-49.46,5.11-66,22.11-4.11,11.84,28.22S682.19,131,682.19,131Z"/><path class="cls-6" d="M680.72,140c-7.52,2.82-11.54,12.32-3.05,14.15s12.68-6.15,9.52-9.79A13.25,13.25,0,0,0,680.72,140Z"/><polygon class="cls-6" points="196.41 83.47 152.24 50.35 145.8 67.83 196.41 83.47"/><polygon class="cls-6" points="196.87 93.59 114.51 74.73 114.97 90.83 196.87 93.59"/><polygon class="cls-6" points="194.57 102.58 127.39 102.11 126.94 117.76 194.57 102.58"/><path class="cls-6" d="M447.19,160.38S570.49,143.21,658,150l-.24,10.45S512,153.61,447.19,160.38Z"/><text class="cls-7" transform="translate(275.79 198.37)">Click here <tspan class="cls-8" x="194.34" y="0">t</tspan><tspan x="212.53" y="0">o </tspan><tspan class="cls-9" x="245.83" y="0">p</tspan><tspan class="cls-10" x="263.5" y="0">a</tspan><tspan x="284.76" y="0">ck</tspan></text></g></g></svg>