<?xml version="1.0" encoding="utf-8"?>
<!-- Generator: Adobe Illustrator 21.1.0, SVG Export Plug-In . SVG Version: 6.00 Build 0)  -->
<svg version="1.1" id="Layer_1" xmlns="http://www.w3.org/2000/svg" xmlns:xlink="http://www.w3.org/1999/xlink" x="0px" y="0px"
	 viewBox="0 0 577.2 78.8" style="enable-background:new 0 0 577.2 78.8;" xml:space="preserve">
<style type="text/css">
	.st0{font-family:'Porter-BoldDEMO';}
	.st1{font-size:83px;}
	.st2{fill:none;stroke:#231F20;stroke-miterlimit:10;}
	.st3{letter-spacing:-6;}
	.st4{letter-spacing:-3;}
	.st5{fill:none;stroke:#231F20;stroke-width:4;stroke-linecap:round;stroke-linejoin:round;}
	.st6{fill:none;stroke:#000000;stroke-width:2;stroke-linecap:round;stroke-linejoin:round;stroke-miterlimit:10;}
</style>
<title>SnapPack</title>
<g id="Layer_2">
	<g id="Layer_1-2">
		<text transform="matrix(1 0 0 1 63.09 71.05)" class="st0 st1">Snap</text>
		<text transform="matrix(1 0 0 1 63.09 71.05)" class="st2 st0 st1">Snap</text>
		<text transform="matrix(1 0 0 1 291.26 71.05)" class="st0 st1 st3">P</text>
		<text transform="matrix(1 0 0 1 291.26 71.05)" class="st2 st0 st1 st3">P</text>
		<text transform="matrix(1 0 0 1 338.57 71.05)" class="st0 st1 st4">a</text>
		<text transform="matrix(1 0 0 1 338.57 71.05)" class="st2 st0 st1 st4">a</text>
		<text transform="matrix(1 0 0 1 395.51 71.05)" class="st0 st1">ck</text>
		<text transform="matrix(1 0 0 1 395.51 71.05)" class="st2 st0 st1">ck</text>
		<path class="st5" d="M48.4,47.5c-32.2-8.9-50-12.8-45.8,0S48.4,47.5,48.4,47.5z"/>
		<path class="st5" d="M49.6,37.8c0,0-13.6-24.5-23.7-23.3s4.3,13.6,11.6,18.2S49.6,37.8,49.6,37.8z"/>
		<path class="st5" d="M47.6,55.3C31.3,58.8,10.8,65,17,69.7S47.6,55.3,47.6,55.3z"/>
		<path class="st5" d="M528.8,47.5c32.2-8.9,50-12.8,45.8,0S528.8,47.5,528.8,47.5z"/>
		<path class="st5" d="M527.6,37.8c0,0,13.6-24.4,23.7-23.3s-4.3,13.6-11.6,18.2S527.6,37.8,527.6,37.8z"/>
		<path class="st5" d="M529.5,55.3c16.3,3.5,36.8,9.7,30.7,14.3S529.5,55.3,529.5,55.3z"/>
	</g>
</g>
<text transform="matrix(1 0 0 1 110.1912 117.9644)" class="st0" style="font-size:38px; letter-spacing:4;">Pack in a snap</text>
<g>
	<path class="st6" d="M472.8,118c0,0,4.6-30.6,10.7-32S472.8,118,472.8,118z"/>
	<path class="st6" d="M471.6,120.7c-2.1,0-2.6,3.4,0,3.4S473.7,120.7,471.6,120.7z"/>
</g>
</svg>
